<svg width="246" height="64" viewBox="0 0 246 64" fill="none" xmlns="http://www.w3.org/2000/svg">
<path fill-rule="evenodd" clip-rule="evenodd" d="M31.9612 7.60448C45.4179 7.60487 56.3282 18.5269 56.3286 32L56.3198 32.6308C55.9857 45.8127 45.2075 56.3966 31.9612 56.397L31.3326 56.3882C18.1664 56.0541 7.59564 45.2627 7.59526 32C7.59563 18.5269 18.5044 7.60486 31.9612 7.60448ZM31.9612 9.09624C19.3273 9.09662 9.08558 19.3508 9.08521 32C9.0856 44.6492 19.3273 54.9048 31.9612 54.9052C44.595 54.9048 54.8382 44.6492 54.8386 32C54.8382 19.3508 44.5951 9.09663 31.9612 9.09624Z" fill="#F8FFD7"/>
<path fill-rule="evenodd" clip-rule="evenodd" d="M32.9637 5.7121C47.3273 6.07643 58.8603 17.8487 58.8603 32.3176L58.8516 33.0037C58.4877 47.3846 46.7294 58.9314 32.2784 58.9318L31.5916 58.9231C17.4562 58.5642 6.06328 47.1564 5.70517 33.0037L5.69644 32.3176C5.69644 17.619 17.5977 5.70336 32.2784 5.70336L32.9637 5.7121ZM32.2784 7.19512C18.4206 7.19512 7.18639 18.4429 7.18639 32.3176C7.18678 46.1919 18.4208 57.44 32.2784 57.44C46.1357 57.4397 57.37 46.1917 57.3704 32.3176C57.3704 18.4432 46.1359 7.19551 32.2784 7.19512Z" fill="#F8FFD7"/>
<path fill-rule="evenodd" clip-rule="evenodd" d="M31.9612 1.90112C48.5641 1.90132 62.0234 15.3769 62.0236 32C62.0234 48.6231 48.5641 62.0987 31.9612 62.0989C15.3583 62.0987 1.89901 48.6231 1.89881 32C1.899 15.3769 15.3583 1.90131 31.9612 1.90112ZM31.9612 3.39288C16.1812 3.39307 3.38895 16.2008 3.38877 32C3.38896 47.7992 16.1812 60.6069 31.9612 60.6071C47.7412 60.6069 60.5334 47.7992 60.5336 32C60.5334 16.2008 47.7412 3.39308 31.9612 3.39288Z" fill="#F8FFD7"/>
<path fill-rule="evenodd" clip-rule="evenodd" d="M31.9612 0C49.6128 0.00014762 63.9222 14.327 63.9224 32C63.9223 49.6731 49.6128 63.9999 31.9612 64C14.3095 63.9999 9.83012e-05 49.6731 0 32C0.000125939 14.3269 14.3096 0.0001261 31.9612 0ZM31.9612 1.49176C15.1324 1.49189 1.49008 15.1508 1.48995 32C1.49005 48.8492 15.1324 62.5081 31.9612 62.5082C48.7899 62.5081 62.4323 48.8492 62.4324 32C62.4323 15.1508 48.7899 1.49191 31.9612 1.49176Z" fill="#F8FFD7"/>
<path d="M90.2904 22.4C90.2904 20.5867 90.0418 19.2533 89.5446 18.4C89.0474 17.5111 88.0531 17.0667 86.5615 17.0667H86.0289V15.4667H109.52C112.539 15.4667 114.048 16.8889 114.048 19.7333V24.2667H112.45C112.45 22.0622 111.882 20.4444 110.746 19.4133C109.645 18.3822 107.993 17.8667 105.792 17.8667H97.2153V31.2H111.065V33.6H97.2153V48.2667H106.324C108.348 48.2667 110.035 47.8222 111.385 46.9333C112.734 46.0089 113.853 44.4267 114.741 42.1867L116.179 42.72L114.634 46.9333C114.172 48.2133 113.622 49.1556 112.983 49.76C112.344 50.3644 111.349 50.6667 110 50.6667H90.2904V22.4Z" fill="url(#paint0_linear_358_1407)"/>
<path d="M130.807 51.2C128.073 51.2 125.746 50.6133 123.829 49.44C121.911 48.2667 120.455 46.7022 119.461 44.7467C118.502 42.7556 118.023 40.5511 118.023 38.1333C118.023 35.7156 118.502 33.5289 119.461 31.5733C120.455 29.5822 121.911 28 123.829 26.8267C125.746 25.6533 128.073 25.0667 130.807 25.0667C135.068 25.0667 137.821 25.6889 139.064 26.9333C139.667 27.5378 140.04 28.3378 140.182 29.3333C140.324 30.3289 140.395 32.0178 140.395 34.4H138.797C138.655 32.16 137.963 30.4533 136.72 29.28C135.477 28.0711 133.772 27.4667 131.606 27.4667C129.653 27.4667 128.09 28.3733 126.918 30.1867C125.782 31.9644 125.214 34.6133 125.214 38.1333C125.214 45.2444 127.433 48.8 131.872 48.8C133.577 48.8 134.997 48.4267 136.134 47.68C137.306 46.8978 138.424 45.7956 139.49 44.3733L141.141 45.6C140.111 47.2 138.815 48.5333 137.252 49.6C135.69 50.6667 133.541 51.2 130.807 51.2Z" fill="url(#paint1_linear_358_1407)"/>
<path d="M145.727 32.5333C145.727 30.72 145.479 29.3867 144.981 28.5333C144.52 27.6444 143.543 27.2 142.052 27.2H141.519V25.6H146.793C148 25.6 148.941 25.76 149.616 26.08C150.326 26.3644 150.876 26.8622 151.267 27.5733C153.078 25.9022 155.671 25.0667 159.044 25.0667C162.418 25.0667 164.939 25.8667 166.609 27.4667C168.313 29.0311 169.165 31.5022 169.165 34.88V50.6667H162.24V34.8267C162.24 32.3733 161.779 30.5778 160.855 29.44C159.968 28.3022 158.743 27.7333 157.18 27.7333C156.079 27.7333 155.102 27.8933 154.25 28.2133C153.433 28.4978 152.776 28.8889 152.279 29.3867L152.439 30.1333C152.581 30.56 152.652 31.2533 152.652 32.2133V50.6667H145.727V32.5333Z" fill="url(#paint2_linear_358_1407)"/>
<path d="M185.263 51.2C182.813 51.2 180.664 50.6311 178.817 49.4933C176.971 48.3556 175.533 46.8089 174.503 44.8533C173.508 42.8622 173.011 40.6222 173.011 38.1333C173.011 35.36 173.508 32.9956 174.503 31.04C175.533 29.0844 176.935 27.6089 178.711 26.6133C180.487 25.5822 182.493 25.0667 184.73 25.0667C186.932 25.0667 188.921 25.5111 190.696 26.4C192.472 27.2889 193.875 28.5511 194.905 30.1867C195.934 31.7867 196.449 33.6356 196.449 35.7333C196.449 36.4089 196.414 37.1733 196.343 38.0267L196.236 39.0933H180.202C180.202 42.4711 180.717 44.9422 181.747 46.5067C182.777 48.0356 184.215 48.8 186.062 48.8C187.767 48.8 189.187 48.4267 190.323 47.68C191.495 46.8978 192.614 45.7956 193.679 44.3733L195.331 45.6C194.301 47.2 193.005 48.5333 191.442 49.6C189.915 50.6667 187.855 51.2 185.263 51.2ZM189.258 36.6933C189.258 33.3511 188.867 30.9867 188.086 29.6C187.305 28.1778 186.186 27.4667 184.73 27.4667C183.381 27.4667 182.28 28.1956 181.428 29.6533C180.611 31.0756 180.202 33.4222 180.202 36.6933H189.258Z" fill="url(#paint3_linear_358_1407)"/>
<path d="M200.487 22.4C200.487 20.5867 200.238 19.2533 199.741 18.4C199.244 17.5111 198.249 17.0667 196.758 17.0667H196.225V15.4667H202.617C203.896 15.4667 204.872 15.68 205.547 16.1067C206.222 16.5333 206.701 17.2444 206.985 18.24C207.269 19.2 207.411 20.5867 207.411 22.4V50.6667H200.487V22.4Z" fill="url(#paint4_linear_358_1407)"/>
<path d="M217.416 22.72C216.138 22.72 215.143 22.3289 214.433 21.5467C213.758 20.7644 213.421 19.8044 213.421 18.6667C213.421 17.7422 213.687 17.0133 214.22 16.48C214.788 15.9467 215.498 15.68 216.351 15.68C217.629 15.68 218.606 16.0711 219.28 16.8533C219.991 17.6356 220.346 18.5956 220.346 19.7333C220.346 20.6578 220.062 21.3867 219.493 21.92C218.961 22.4533 218.268 22.72 217.416 22.72ZM213.954 32.5333C213.954 30.72 213.705 29.3867 213.208 28.5333C212.711 27.6444 211.716 27.2 210.225 27.2H209.692V25.6H216.084C217.363 25.6 218.339 25.8133 219.014 26.24C219.689 26.6667 220.168 27.3778 220.452 28.3733C220.736 29.3333 220.878 30.72 220.878 32.5333V50.6667H213.954V32.5333Z" fill="url(#paint5_linear_358_1407)"/>
<path d="M235.08 51.2C230.925 51.2 228.066 50.4711 226.504 49.0133C225.935 48.48 225.58 47.7333 225.438 46.7733C225.296 45.7778 225.225 44.4089 225.225 42.6667H227.09C227.409 44.5156 228.137 46.0089 229.274 47.1467C230.41 48.2489 231.99 48.8 234.015 48.8C237.566 48.8 239.341 47.5911 239.341 45.1733C239.341 44.2489 238.951 43.4844 238.17 42.88C237.424 42.2756 236.216 41.6 234.547 40.8533L231.777 39.68C229.504 38.6844 227.8 37.6 226.663 36.4267C225.527 35.2533 224.959 33.8311 224.959 32.16C224.959 29.92 225.882 28.1778 227.729 26.9333C229.611 25.6889 232.061 25.0667 235.08 25.0667C239.235 25.0667 242.094 25.7956 243.656 27.2533C244.224 27.7867 244.579 28.5333 244.722 29.4933C244.864 30.4533 244.935 31.8222 244.935 33.6H243.07C242.751 31.7511 242.023 30.2756 240.886 29.1733C239.75 28.0356 238.17 27.4667 236.145 27.4667C234.618 27.4667 233.482 27.8044 232.736 28.48C231.99 29.12 231.617 29.9911 231.617 31.0933C231.617 31.9822 231.919 32.7289 232.523 33.3333C233.162 33.9022 234.121 34.4711 235.4 35.04L238.596 36.3733C241.224 37.4756 243.106 38.5956 244.242 39.7333C245.414 40.8356 246 42.2933 246 44.1067C246 46.3822 244.988 48.1422 242.964 49.3867C240.975 50.5956 238.347 51.2 235.08 51.2Z" fill="url(#paint6_linear_358_1407)"/>
<defs>
<linearGradient id="paint0_linear_358_1407" x1="85.2298" y1="32" x2="250.363" y2="32" gradientUnits="userSpaceOnUse">
<stop stop-color="#F8FFD7"/>
<stop offset="1" stop-color="#959981"/>
</linearGradient>
<linearGradient id="paint1_linear_358_1407" x1="85.2298" y1="32" x2="250.363" y2="32" gradientUnits="userSpaceOnUse">
<stop stop-color="#F8FFD7"/>
<stop offset="1" stop-color="#959981"/>
</linearGradient>
<linearGradient id="paint2_linear_358_1407" x1="85.2298" y1="32" x2="250.363" y2="32" gradientUnits="userSpaceOnUse">
<stop stop-color="#F8FFD7"/>
<stop offset="1" stop-color="#959981"/>
</linearGradient>
<linearGradient id="paint3_linear_358_1407" x1="85.2298" y1="32" x2="250.363" y2="32" gradientUnits="userSpaceOnUse">
<stop stop-color="#F8FFD7"/>
<stop offset="1" stop-color="#959981"/>
</linearGradient>
<linearGradient id="paint4_linear_358_1407" x1="85.2298" y1="32" x2="250.363" y2="32" gradientUnits="userSpaceOnUse">
<stop stop-color="#F8FFD7"/>
<stop offset="1" stop-color="#959981"/>
</linearGradient>
<linearGradient id="paint5_linear_358_1407" x1="85.2298" y1="32" x2="250.363" y2="32" gradientUnits="userSpaceOnUse">
<stop stop-color="#F8FFD7"/>
<stop offset="1" stop-color="#959981"/>
</linearGradient>
<linearGradient id="paint6_linear_358_1407" x1="85.2298" y1="32" x2="250.363" y2="32" gradientUnits="userSpaceOnUse">
<stop stop-color="#F8FFD7"/>
<stop offset="1" stop-color="#959981"/>
</linearGradient>
</defs>
</svg>
