<svg width="64" height="64" viewBox="0 0 64 64" fill="none" xmlns="http://www.w3.org/2000/svg">
<path fill-rule="evenodd" clip-rule="evenodd" d="M32 7.60448C45.4731 7.60487 56.3966 18.5269 56.397 32L56.3882 32.6308C56.0537 45.8127 45.2624 56.3966 32 56.397L31.3707 56.3882C18.1884 56.0541 7.60487 45.2627 7.60448 32C7.60486 18.5269 18.5269 7.60486 32 7.60448ZM32 9.09624C19.3508 9.09662 9.09662 19.3508 9.09624 32C9.09663 44.6492 19.3508 54.9048 32 54.9052C44.6492 54.9048 54.9048 44.6492 54.9052 32C54.9048 19.3508 44.6492 9.09663 32 9.09624Z" fill="#F8FFD7"/>
<path fill-rule="evenodd" clip-rule="evenodd" d="M33.0037 5.7121C47.3848 6.07643 58.9318 17.8487 58.9318 32.3176L58.9231 33.0037C58.5588 47.3846 46.7862 58.9314 32.3176 58.9318L31.63 58.9231C17.4774 58.5642 6.07064 47.1564 5.7121 33.0037L5.70336 32.3176C5.70336 17.619 17.619 5.70336 32.3176 5.70336L33.0037 5.7121ZM32.3176 7.19512C18.4429 7.19512 7.19512 18.4429 7.19512 32.3176C7.19551 46.1919 18.4432 57.44 32.3176 57.44C46.1917 57.4397 57.4397 46.1917 57.44 32.3176C57.44 18.4432 46.1919 7.19551 32.3176 7.19512Z" fill="#F8FFD7"/>
<path fill-rule="evenodd" clip-rule="evenodd" d="M32 1.90112C48.6231 1.90132 62.0987 15.3769 62.0989 32C62.0987 48.6231 48.6231 62.0987 32 62.0989C15.3769 62.0987 1.90132 48.6231 1.90112 32C1.90131 15.3769 15.3769 1.90131 32 1.90112ZM32 3.39288C16.2008 3.39307 3.39307 16.2008 3.39288 32C3.39308 47.7992 16.2008 60.6069 32 60.6071C47.7992 60.6069 60.6069 47.7992 60.6071 32C60.6069 16.2008 47.7992 3.39308 32 3.39288Z" fill="#F8FFD7"/>
<path fill-rule="evenodd" clip-rule="evenodd" d="M32 0C49.673 0.00014762 63.9999 14.327 64 32C63.9999 49.6731 49.6731 63.9999 32 64C14.3269 63.9999 9.84206e-05 49.6731 0 32C0.000126092 14.3269 14.3269 0.0001261 32 0ZM32 1.49176C15.1508 1.49189 1.49189 15.1508 1.49176 32C1.49186 48.8492 15.1508 62.5081 32 62.5082C48.8492 62.5081 62.5081 48.8492 62.5082 32C62.5081 15.1508 48.8492 1.49191 32 1.49176Z" fill="#F8FFD7"/>
</svg>
